# xmcd
#
# Track frame offsets: 
#        150
#        22188
#        40811
#        59911
#        81022
#        96675
#        115967
#        135284
#        152854
#        175230
#        194140
#        214389
#        239753
#
# Disc length: 3538 seconds
#
# Revision: 0
# Processed by: cddbd v1.5.2PL0 Copyright (c) Steve Scherf et al.
# Submitted via: ExactAudioCopy v0.99pb4
#
DISCID=cc0dd00d
DTITLE=Михаил Шелег - Давай, закурим!
DYEAR=2002
DGENRE=Chanson
TTITLE0=Первая любовь
TTITLE1=Давай, закурим!
TTITLE2=Карточный домик
TTITLE3=Отпустите солдата домой
TTITLE4=Королева бала
TTITLE5=Белая ворона
TTITLE6=Ангел - хранитель
TTITLE7=Месяц май
TTITLE8=Осень подруга
TTITLE9=Только ты
TTITLE10=Ночная незнакомка
TTITLE11=Замкнутый круг
TTITLE12=Мой Петербург
EXTD=
EXTT0=Первая любовь
EXTT1=Даваай,закурим
EXTT2=
EXTT3=
EXTT4=
EXTT5=
EXTT6=
EXTT7=
EXTT8=
EXTT9=
EXTT10=
EXTT11=
EXTT12=Мой Петербург
PLAYORDER=
